<svg width="336" height="336" viewBox="0 0 336 336" fill="none" xmlns="http://www.w3.org/2000/svg">
<mask id="mask0_30_5567" style="mask-type:alpha" maskUnits="userSpaceOnUse" x="2" y="2" width="332" height="332">
<rect x="2" y="2" width="332" height="332" fill="url(#paint0_radial_30_5567)"/>
</mask>
<g mask="url(#mask0_30_5567)">
</g>
<g clip-path="url(#clip0_30_5567)">
<rect opacity="0.1" x="2.5" y="2.5" width="63" height="63" rx="15.5" stroke="url(#paint1_linear_30_5567)"/>
<rect opacity="0.1" x="70.5" y="2.5" width="199" height="63" rx="15.5" stroke="url(#paint2_linear_30_5567)"/>
<rect opacity="0.1" x="274.5" y="2.5" width="63" height="63" rx="15.5" stroke="url(#paint3_linear_30_5567)"/>
<g clip-path="url(#clip1_30_5567)" filter="url(#filter0_d_30_5567)">
<rect width="64" height="64" transform="translate(138 138)" fill="white" fill-opacity="0.01"/>
<g clip-path="url(#clip2_30_5567)">
<mask id="mask1_30_5567" style="mask-type:luminance" maskUnits="userSpaceOnUse" x="138" y="138" width="64" height="64">
<path d="M186 138H154C145.163 138 138 145.163 138 154V186C138 194.837 145.163 202 154 202H186C194.837 202 202 194.837 202 186V154C202 145.163 194.837 138 186 138Z" fill="white"/>
</mask>
<g mask="url(#mask1_30_5567)">
<path opacity="0.4" d="M186 138.75H154C145.578 138.75 138.75 145.578 138.75 154V186C138.75 194.422 145.578 201.25 154 201.25H186C194.422 201.25 201.25 194.422 201.25 186V154C201.25 145.578 194.422 138.75 186 138.75Z" stroke="#F8F8F8" stroke-width="1.5"/>
<path d="M186 144H154C148.477 144 144 148.477 144 154V186C144 191.523 148.477 196 154 196H186C191.523 196 196 191.523 196 186V154C196 148.477 191.523 144 186 144Z" fill="#F8F8F8" fill-opacity="0.01"/>
<g opacity="0.25">
<path fill-rule="evenodd" clip-rule="evenodd" d="M172 164C172 162.895 171.105 162 170 162C168.895 162 168 162.895 168 164V165C168 166.657 166.657 168 165 168H164C162.895 168 162 168.895 162 170C162 171.105 162.895 172 164 172H165C166.657 172 168 173.343 168 175V176C168 177.105 168.895 178 170 178C171.105 178 172 177.105 172 176V175C172 173.343 173.343 172 175 172H176C177.105 172 178 171.105 178 170C178 168.895 177.105 168 176 168H175C173.343 168 172 166.657 172 165V164Z" fill="#F8F8F8"/>
</g>
</g>
</g>
</g>
<rect x="-65.5" y="70.5" width="131" height="63" rx="15.5" stroke="#0C4A6E"/>
<rect x="-65.5" y="138.5" width="131" height="63" rx="15.5" stroke="#0C4A6E"/>
<rect x="-65.5" y="206.5" width="131" height="63" rx="15.5" stroke="#0C4A6E"/>
<g clip-path="url(#clip3_30_5567)">
<mask id="mask2_30_5567" style="mask-type:alpha" maskUnits="userSpaceOnUse" x="119" y="67" width="207" height="207">
<path d="M222.5 274C279.661 274 326 227.661 326 170.5C326 113.339 279.661 67 222.5 67C165.339 67 119 113.339 119 170.5C119 227.661 165.339 274 222.5 274Z" fill="#D9D9D9"/>
</mask>
<g mask="url(#mask2_30_5567)">
<path d="M322 70.75H290C281.578 70.75 274.75 77.5777 274.75 86V118C274.75 126.422 281.578 133.25 290 133.25H322C330.422 133.25 337.25 126.422 337.25 118V86C337.25 77.5777 330.422 70.75 322 70.75Z" stroke="#0C4A6E" stroke-width="1.5"/>
<path d="M322 138.75H290C281.578 138.75 274.75 145.578 274.75 154V186C274.75 194.422 281.578 201.25 290 201.25H322C330.422 201.25 337.25 194.422 337.25 186V154C337.25 145.578 330.422 138.75 322 138.75Z" stroke="#0C4A6E" stroke-width="1.5"/>
<path d="M322 206.75H290C281.578 206.75 274.75 213.578 274.75 222V254C274.75 262.422 281.578 269.25 290 269.25H322C330.422 269.25 337.25 262.422 337.25 254V222C337.25 213.578 330.422 206.75 322 206.75Z" stroke="#0C4A6E" stroke-width="1.5"/>
</g>
</g>
<rect opacity="0.1" x="2.5" y="274.5" width="63" height="63" rx="15.5" stroke="#F8F8F8"/>
<rect opacity="0.1" x="70.5" y="274.5" width="199" height="63" rx="15.5" stroke="#F8F8F8"/>
<rect opacity="0.1" x="274.5" y="274.5" width="63" height="63" rx="15.5" stroke="#F8F8F8"/>
<g clip-path="url(#clip4_30_5567)">
<g opacity="0.25">
<path d="M75 101.25C74.5858 101.25 74.25 101.586 74.25 102C74.25 102.414 74.5858 102.75 75 102.75V101.25ZM75 102.75H86.5046V101.25H75V102.75ZM100.746 112.546L118.915 159.99L120.316 159.454L102.147 112.01L100.746 112.546ZM134.558 170.75H139V169.25H134.558V170.75ZM118.915 159.99C121.397 166.471 127.618 170.75 134.558 170.75V169.25C128.239 169.25 122.576 165.354 120.316 159.454L118.915 159.99ZM86.5046 102.75C92.8226 102.75 98.4864 106.646 100.746 112.546L102.147 112.01C99.665 105.529 93.4441 101.25 86.5046 101.25V102.75Z" fill="#F8F8F8"/>
<path d="M75 240.75C74.5858 240.75 74.25 240.414 74.25 240C74.25 239.586 74.5858 239.25 75 239.25V240.75ZM75 239.25H86.3913V240.75H75V239.25ZM100.684 229.317L118.972 180.16L120.378 180.683L102.09 229.84L100.684 229.317ZM134.671 169.25H139V170.75H134.671V169.25ZM118.972 180.16C121.412 173.601 127.673 169.25 134.671 169.25V170.75C128.299 170.75 122.599 174.711 120.378 180.683L118.972 180.16ZM86.3913 239.25C92.7628 239.25 98.4627 235.289 100.684 229.317L102.09 229.84C99.6501 236.399 93.3895 240.75 86.3913 240.75V239.25Z" fill="#F8F8F8"/>
<path d="M75 170H119" stroke="#F8F8F8" stroke-width="1.5" stroke-linecap="round"/>
</g>
</g>
<g clip-path="url(#clip5_30_5567)">
<g opacity="0.25">
<path d="M265 101.25C265.414 101.25 265.75 101.586 265.75 102C265.75 102.414 265.414 102.75 265 102.75V101.25ZM265 102.75H253.495V101.25H265V102.75ZM239.254 112.546L221.085 159.99L219.684 159.454L237.853 112.01L239.254 112.546ZM205.443 170.75H201V169.25H205.443V170.75ZM221.085 159.99C218.603 166.471 212.382 170.75 205.443 170.75V169.25C211.761 169.25 217.424 165.354 219.684 159.454L221.085 159.99ZM253.495 102.75C247.177 102.75 241.514 106.646 239.254 112.546L237.853 112.01C240.335 105.529 246.556 101.25 253.495 101.25V102.75Z" fill="#F8F8F8"/>
<path d="M265 240.75C265.414 240.75 265.75 240.414 265.75 240C265.75 239.586 265.414 239.25 265 239.25V240.75ZM265 239.25H253.609V240.75H265V239.25ZM239.316 229.317L221.028 180.16L219.622 180.683L237.91 229.84L239.316 229.317ZM205.329 169.25H201V170.75H205.329V169.25ZM221.028 180.16C218.588 173.601 212.327 169.25 205.329 169.25V170.75C211.701 170.75 217.401 174.711 219.622 180.683L221.028 180.16ZM253.609 239.25C247.237 239.25 241.537 235.289 239.316 229.317L237.91 229.84C240.35 236.399 246.611 240.75 253.609 240.75V239.25Z" fill="#F8F8F8"/>
<path d="M265 170H221" stroke="#F8F8F8" stroke-width="1.5" stroke-linecap="round"/>
</g>
</g>
</g>
<defs>
<filter id="filter0_d_30_5567" x="122" y="138" width="96" height="112" filterUnits="userSpaceOnUse" color-interpolation-filters="sRGB">
<feFlood flood-opacity="0" result="BackgroundImageFix"/>
<feColorMatrix in="SourceAlpha" type="matrix" values="0 0 0 0 0 0 0 0 0 0 0 0 0 0 0 0 0 0 127 0" result="hardAlpha"/>
<feMorphology radius="8" operator="erode" in="SourceAlpha" result="effect1_dropShadow_30_5567"/>
<feOffset dy="32"/>
<feGaussianBlur stdDeviation="12"/>
<feComposite in2="hardAlpha" operator="out"/>
<feColorMatrix type="matrix" values="0 0 0 0 0 0 0 0 0 0 0 0 0 0 0 0 0 0 0.6 0"/>
<feBlend mode="normal" in2="BackgroundImageFix" result="effect1_dropShadow_30_5567"/>
<feBlend mode="normal" in="SourceGraphic" in2="effect1_dropShadow_30_5567" result="shape"/>
</filter>
<radialGradient id="paint0_radial_30_5567" cx="0" cy="0" r="1" gradientUnits="userSpaceOnUse" gradientTransform="translate(168 168) scale(166)">
<stop/>
<stop offset="1" stop-opacity="0"/>
</radialGradient>
<linearGradient id="paint1_linear_30_5567" x1="34" y1="2" x2="34" y2="66" gradientUnits="userSpaceOnUse">
<stop stop-color="#F8F8F8"/>
<stop offset="1" stop-color="#929292"/>
</linearGradient>
<linearGradient id="paint2_linear_30_5567" x1="170" y1="2" x2="170" y2="66" gradientUnits="userSpaceOnUse">
<stop stop-color="#F8F8F8"/>
<stop offset="1" stop-color="#929292"/>
</linearGradient>
<linearGradient id="paint3_linear_30_5567" x1="306" y1="2" x2="306" y2="66" gradientUnits="userSpaceOnUse">
<stop stop-color="#F8F8F8"/>
<stop offset="1" stop-color="#929292"/>
</linearGradient>
<clipPath id="clip0_30_5567">
<rect width="332" height="332" fill="white" transform="translate(2 2)"/>
</clipPath>
<clipPath id="clip1_30_5567">
<rect width="64" height="64" fill="white" transform="translate(138 138)"/>
</clipPath>
<clipPath id="clip2_30_5567">
<rect width="64" height="64" fill="white" transform="translate(138 138)"/>
</clipPath>
<clipPath id="clip3_30_5567">
<rect width="132" height="200" fill="white" transform="translate(274 70)"/>
</clipPath>
<clipPath id="clip4_30_5567">
<rect width="73" height="138" fill="white" transform="translate(66 102)"/>
</clipPath>
<clipPath id="clip5_30_5567">
<rect width="73" height="138" fill="white" transform="translate(201 102)"/>
</clipPath>
</defs>
</svg>
