<svg width="32" height="32" viewBox="0 0 32 32" fill="none" xmlns="http://www.w3.org/2000/svg">
<path d="M7 7.53744C7 6.39611 8.22267 5.67344 9.22267 6.22277L24.6093 14.6854C24.8448 14.8148 25.0413 15.0051 25.1781 15.2364C25.3149 15.4676 25.3871 15.7314 25.3871 16.0001C25.3871 16.2688 25.3149 16.5326 25.1781 16.7639C25.0413 16.9951 24.8448 17.1854 24.6093 17.3148L9.22267 25.7774C8.99425 25.903 8.73705 25.9669 8.47641 25.9628C8.21578 25.9587 7.96071 25.8868 7.73636 25.7541C7.512 25.6214 7.3261 25.4325 7.19697 25.2061C7.06785 24.9796 6.99996 24.7234 7 24.4628V7.53744Z" stroke="#082F49" stroke-width="2" stroke-linecap="round" stroke-linejoin="round"/>
</svg>
