<svg width="15" height="16" viewBox="0 0 15 16" fill="none" xmlns="http://www.w3.org/2000/svg">
<path d="M7.5 6.125V9.875M9.375 8H5.625M13.125 8C13.125 8.73869 12.9795 9.47014 12.6968 10.1526C12.4141 10.8351 11.9998 11.4551 11.4775 11.9775C10.9551 12.4998 10.3351 12.9141 9.65259 13.1968C8.97014 13.4795 8.23869 13.625 7.5 13.625C6.76131 13.625 6.02986 13.4795 5.34741 13.1968C4.66495 12.9141 4.04485 12.4998 3.52252 11.9775C3.00019 11.4551 2.58586 10.8351 2.30318 10.1526C2.02049 9.47014 1.875 8.73869 1.875 8C1.875 6.50816 2.46763 5.07742 3.52252 4.02252C4.57742 2.96763 6.00816 2.375 7.5 2.375C8.99184 2.375 10.4226 2.96763 11.4775 4.02252C12.5324 5.07742 13.125 6.50816 13.125 8Z" stroke="#31363F" stroke-width="0.9375" stroke-linecap="round" stroke-linejoin="round"/>
</svg>
