<svg width="20" height="20" viewBox="0 0 20 20" fill="none" xmlns="http://www.w3.org/2000/svg">
<path d="M4.375 4.71084C4.375 3.99751 5.13917 3.54584 5.76417 3.88917L15.3808 9.17834C15.528 9.2592 15.6508 9.37812 15.7363 9.52266C15.8218 9.66721 15.8669 9.83206 15.8669 10C15.8669 10.1679 15.8218 10.3328 15.7363 10.4773C15.6508 10.6219 15.528 10.7408 15.3808 10.8217L5.76417 16.1108C5.6214 16.1893 5.46065 16.2293 5.29776 16.2267C5.13486 16.2241 4.97545 16.1792 4.83522 16.0962C4.695 16.0133 4.57881 15.8952 4.49811 15.7537C4.41741 15.6122 4.37498 15.4521 4.375 15.2892V4.71084Z" stroke="#0EA5E9" stroke-width="1.25" stroke-linecap="round" stroke-linejoin="round"/>
</svg>
