<svg width="32" height="32" viewBox="0 0 32 32" fill="none" xmlns="http://www.w3.org/2000/svg">
<path fill-rule="evenodd" clip-rule="evenodd" d="M11.9999 6C12.2172 6.00004 12.4286 6.07086 12.602 6.20173C12.7755 6.3326 12.9016 6.51641 12.9613 6.72533L14.0453 10.52C14.2787 11.3372 14.7165 12.0815 15.3175 12.6824C15.9185 13.2834 16.6627 13.7213 17.4799 13.9547L21.2746 15.0387C21.4834 15.0985 21.667 15.2246 21.7978 15.3981C21.9285 15.5715 21.9992 15.7828 21.9992 16C21.9992 16.2172 21.9285 16.4285 21.7978 16.6019C21.667 16.7754 21.4834 16.9015 21.2746 16.9613L17.4799 18.0453C16.6627 18.2787 15.9185 18.7166 15.3175 19.3176C14.7165 19.9185 14.2787 20.6628 14.0453 21.48L12.9613 25.2747C12.9014 25.4835 12.7753 25.6671 12.6018 25.7978C12.4284 25.9286 12.2171 25.9993 11.9999 25.9993C11.7827 25.9993 11.5714 25.9286 11.398 25.7978C11.2246 25.6671 11.0984 25.4835 11.0386 25.2747L9.9546 21.48C9.7212 20.6628 9.28333 19.9185 8.68236 19.3176C8.08139 18.7166 7.33715 18.2787 6.51993 18.0453L2.72526 16.9613C2.51647 16.9015 2.33282 16.7754 2.20209 16.6019C2.07136 16.4285 2.00065 16.2172 2.00065 16C2.00065 15.7828 2.07136 15.5715 2.20209 15.3981C2.33282 15.2246 2.51647 15.0985 2.72526 15.0387L6.51993 13.9547C7.33715 13.7213 8.08139 13.2834 8.68236 12.6824C9.28333 12.0815 9.7212 11.3372 9.9546 10.52L11.0386 6.72533C11.0983 6.51641 11.2244 6.3326 11.3978 6.20173C11.5713 6.07086 11.7826 6.00004 11.9999 6ZM23.9999 2C24.223 1.99988 24.4397 2.07435 24.6156 2.21158C24.7915 2.34881 24.9165 2.54091 24.9706 2.75733L25.3146 4.13867C25.6293 5.392 26.6079 6.37067 27.8613 6.68533L29.2426 7.02933C29.4594 7.08304 29.652 7.20781 29.7897 7.38373C29.9274 7.55966 30.0022 7.77661 30.0022 8C30.0022 8.22339 29.9274 8.44034 29.7897 8.61627C29.652 8.79219 29.4594 8.91696 29.2426 8.97067L27.8613 9.31467C26.6079 9.62933 25.6293 10.608 25.3146 11.8613L24.9706 13.2427C24.9169 13.4595 24.7921 13.6521 24.6162 13.7898C24.4403 13.9274 24.2233 14.0022 23.9999 14.0022C23.7765 14.0022 23.5596 13.9274 23.3837 13.7898C23.2077 13.6521 23.083 13.4595 23.0293 13.2427L22.6853 11.8613C22.5314 11.2459 22.2132 10.6839 21.7646 10.2353C21.3161 9.78674 20.754 9.46852 20.1386 9.31467L18.7573 8.97067C18.5404 8.91696 18.3478 8.79219 18.2102 8.61627C18.0725 8.44034 17.9977 8.22339 17.9977 8C17.9977 7.77661 18.0725 7.55966 18.2102 7.38373C18.3478 7.20781 18.5404 7.08304 18.7573 7.02933L20.1386 6.68533C20.754 6.53148 21.3161 6.21326 21.7646 5.7647C22.2132 5.31614 22.5314 4.75409 22.6853 4.13867L23.0293 2.75733C23.0834 2.54091 23.2083 2.34881 23.3842 2.21158C23.5601 2.07435 23.7768 1.99988 23.9999 2ZM21.9999 20C22.2099 19.9999 22.4147 20.0659 22.5851 20.1887C22.7555 20.3114 22.8829 20.4847 22.9493 20.684L23.4746 22.2613C23.6746 22.8573 24.1413 23.3267 24.7386 23.5253L26.3159 24.052C26.5145 24.1187 26.6872 24.2461 26.8095 24.4162C26.9319 24.5863 26.9977 24.7905 26.9977 25C26.9977 25.2095 26.9319 25.4137 26.8095 25.5838C26.6872 25.7539 26.5145 25.8813 26.3159 25.948L24.7386 26.4747C24.1426 26.6747 23.6733 27.1413 23.4746 27.7387L22.9479 29.316C22.8812 29.5146 22.7539 29.6873 22.5838 29.8096C22.4137 29.9319 22.2094 29.9977 21.9999 29.9977C21.7904 29.9977 21.5862 29.9319 21.4161 29.8096C21.246 29.6873 21.1186 29.5146 21.0519 29.316L20.5253 27.7387C20.427 27.4444 20.2617 27.177 20.0423 26.9576C19.823 26.7382 19.5556 26.5729 19.2613 26.4747L17.6839 25.948C17.4853 25.8813 17.3126 25.7539 17.1903 25.5838C17.068 25.4137 17.0022 25.2095 17.0022 25C17.0022 24.7905 17.068 24.5863 17.1903 24.4162C17.3126 24.2461 17.4853 24.1187 17.6839 24.052L19.2613 23.5253C19.8573 23.3253 20.3266 22.8587 20.5253 22.2613L21.0519 20.684C21.1182 20.485 21.2454 20.3118 21.4156 20.189C21.5857 20.0663 21.7901 20.0002 21.9999 20Z" fill="#0EA5E9"/>
</svg>
