<svg width="32" height="32" viewBox="0 0 32 32" fill="none" xmlns="http://www.w3.org/2000/svg">
<path fill-rule="evenodd" clip-rule="evenodd" d="M10.0026 8H19.5066C20.6989 8.00177 21.8418 8.47665 22.6843 9.32037C23.5268 10.1641 24 11.3077 24 12.5V25C25.0608 25 26.0782 24.5786 26.8284 23.8284C27.5785 23.0783 28 22.0609 28 21V8.144C28 6.13733 26.5 4.396 24.448 4.224C24.149 4.19972 23.8499 4.17749 23.5506 4.15733C23.2131 3.50705 22.7035 2.96195 22.0774 2.58152C21.4512 2.20109 20.7326 1.99993 20 2H18C17.2673 1.99993 16.5487 2.20109 15.9226 2.58152C15.2964 2.96195 14.7868 3.50705 14.4493 4.15733C14.1493 4.17733 13.8493 4.2 13.552 4.224C11.5493 4.39333 10.072 6.056 10.0026 8ZM18 4C17.4695 4 16.9608 4.21071 16.5857 4.58579C16.2107 4.96086 16 5.46957 16 6H22C22 5.46957 21.7892 4.96086 21.4142 4.58579C21.0391 4.21071 20.5304 4 20 4H18Z" fill="#0EA5E9"/>
<path fill-rule="evenodd" clip-rule="evenodd" d="M4 12.5C4 11.1187 5.12 10 6.5 10H19.5C20.8813 10 22 11.12 22 12.5V27.5C22 28.88 20.88 30 19.5 30H6.5C5.83696 30 5.20107 29.7366 4.73223 29.2678C4.26339 28.7989 4 28.163 4 27.5V12.5ZM8 16C8 15.7348 8.10536 15.4804 8.29289 15.2929C8.48043 15.1054 8.73478 15 9 15H9.01067C9.27588 15 9.53024 15.1054 9.71777 15.2929C9.90531 15.4804 10.0107 15.7348 10.0107 16V16.0107C10.0107 16.2759 9.90531 16.5302 9.71777 16.7178C9.53024 16.9053 9.27588 17.0107 9.01067 17.0107H9C8.73478 17.0107 8.48043 16.9053 8.29289 16.7178C8.10536 16.5302 8 16.2759 8 16.0107V16ZM11 16C11 15.7348 11.1054 15.4804 11.2929 15.2929C11.4804 15.1054 11.7348 15 12 15H17C17.2652 15 17.5196 15.1054 17.7071 15.2929C17.8946 15.4804 18 15.7348 18 16C18 16.2652 17.8946 16.5196 17.7071 16.7071C17.5196 16.8946 17.2652 17 17 17H12C11.7348 17 11.4804 16.8946 11.2929 16.7071C11.1054 16.5196 11 16.2652 11 16ZM8 20C8 19.7348 8.10536 19.4804 8.29289 19.2929C8.48043 19.1054 8.73478 19 9 19H9.01067C9.27588 19 9.53024 19.1054 9.71777 19.2929C9.90531 19.4804 10.0107 19.7348 10.0107 20V20.0107C10.0107 20.2759 9.90531 20.5302 9.71777 20.7178C9.53024 20.9053 9.27588 21.0107 9.01067 21.0107H9C8.73478 21.0107 8.48043 20.9053 8.29289 20.7178C8.10536 20.5302 8 20.2759 8 20.0107V20ZM11 20C11 19.7348 11.1054 19.4804 11.2929 19.2929C11.4804 19.1054 11.7348 19 12 19H17C17.2652 19 17.5196 19.1054 17.7071 19.2929C17.8946 19.4804 18 19.7348 18 20C18 20.2652 17.8946 20.5196 17.7071 20.7071C17.5196 20.8946 17.2652 21 17 21H12C11.7348 21 11.4804 20.8946 11.2929 20.7071C11.1054 20.5196 11 20.2652 11 20ZM8 24C8 23.7348 8.10536 23.4804 8.29289 23.2929C8.48043 23.1054 8.73478 23 9 23H9.01067C9.27588 23 9.53024 23.1054 9.71777 23.2929C9.90531 23.4804 10.0107 23.7348 10.0107 24V24.0107C10.0107 24.2759 9.90531 24.5302 9.71777 24.7178C9.53024 24.9053 9.27588 25.0107 9.01067 25.0107H9C8.73478 25.0107 8.48043 24.9053 8.29289 24.7178C8.10536 24.5302 8 24.2759 8 24.0107V24ZM11 24C11 23.7348 11.1054 23.4804 11.2929 23.2929C11.4804 23.1054 11.7348 23 12 23H17C17.2652 23 17.5196 23.1054 17.7071 23.2929C17.8946 23.4804 18 23.7348 18 24C18 24.2652 17.8946 24.5196 17.7071 24.7071C17.5196 24.8946 17.2652 25 17 25H12C11.7348 25 11.4804 24.8946 11.2929 24.7071C11.1054 24.5196 11 24.2652 11 24Z" fill="#0EA5E9"/>
</svg>
