<svg width="32" height="32" viewBox="0 0 32 32" fill="none" xmlns="http://www.w3.org/2000/svg">
<path d="M28.9613 17.0027C29.1421 14.7066 28.7071 12.4039 27.7013 10.332C26.0364 11.9139 24.0684 13.1421 21.916 13.9427C22.089 16.0671 21.9932 18.2049 21.6306 20.3053C24.2499 19.6457 26.7318 18.5275 28.9613 17.0027ZM19.512 20.7333C19.9378 18.6974 20.0867 16.6132 19.9546 14.5373C18.6853 14.84 17.3613 15 16 15C14.6386 15 13.3146 14.84 12.0453 14.5373C11.9163 16.6132 12.0652 18.6969 12.488 20.7333C14.8157 21.0901 17.1842 21.0901 19.512 20.7333ZM13.0293 22.8253C15.0029 23.0588 16.9971 23.0588 18.9706 22.8253C18.2923 25.0088 17.291 27.0784 16 28.9653C14.7089 27.0784 13.7075 25.0088 13.0293 22.8253ZM10.3693 20.3067C10.0048 18.2056 9.90894 16.0666 10.084 13.9413C7.93101 13.141 5.96252 11.9127 4.2973 10.3307C3.29172 12.4031 2.85722 14.7063 3.03863 17.0027C5.26815 18.5275 7.75 19.647 10.3693 20.3067ZM28.4746 19.6693C27.8014 21.9506 26.5162 24.0039 24.7585 25.6062C23.0007 27.2086 20.8376 28.2989 18.504 28.7587C19.6727 26.7937 20.5646 24.6768 21.1546 22.468C23.7273 21.9288 26.198 20.9846 28.4746 19.6707V19.6693ZM3.5253 19.6693C5.76796 20.964 8.23196 21.92 10.8453 22.468C11.4353 24.6768 12.3273 26.7937 13.496 28.7587C11.1625 28.299 8.99949 27.2089 7.24175 25.6068C5.48402 24.0047 4.1987 21.9517 3.5253 19.6707V19.6693ZM18.504 3.24C21.8076 3.88935 24.7307 5.79444 26.6586 8.55467C25.2355 9.99251 23.5367 11.1281 21.664 11.8933C21.1594 8.83709 20.0876 5.90218 18.504 3.24ZM16 3.03467C17.9458 5.87747 19.2243 9.12315 19.74 12.5293C18.544 12.836 17.2906 13 16 13C14.7093 13 13.456 12.8373 12.26 12.5293C12.7755 9.12314 14.054 5.87745 16 3.03467ZM13.496 3.24C11.9123 5.90217 10.8405 8.83708 10.336 11.8933C8.46324 11.1281 6.76438 9.99254 5.3413 8.55467C7.26935 5.79484 10.1925 3.88888 13.496 3.24Z" fill="#31363F"/>
</svg>
